<svg width="194" height="39" viewBox="0 0 194 39" fill="none" xmlns="http://www.w3.org/2000/svg">
<g clip-path="url(#clip0_12719_112223)">
<path d="M22.1742 6.61551L22.3471 6.8835L22.6312 6.73856L24.1207 5.9786L24.4706 5.80004L24.2557 5.47115C22.1716 2.28178 18.4914 0.356445 13.3818 0.356445C9.33594 0.356445 6.07461 1.4843 3.82066 3.52153C1.5628 5.56228 0.353027 8.48233 0.353027 11.987C0.353027 15.4915 1.56275 18.4113 3.81261 20.452C6.05874 22.4892 9.30489 23.6174 13.3211 23.6174C18.4904 23.6174 22.1711 21.6928 24.2557 18.5028L24.4706 18.1738L24.1207 17.9953L22.6312 17.2353L22.3449 17.0893L22.1728 17.3606C20.4637 20.0546 17.437 21.4221 13.3514 21.4221C10.0804 21.4221 7.41256 20.5707 5.56795 18.9844C3.73067 17.4044 2.66999 15.0612 2.66999 11.987C2.66999 8.91264 3.73067 6.56948 5.56795 4.98949C7.41256 3.40321 10.0804 2.55182 13.3514 2.55182C17.435 2.55182 20.434 3.91816 22.1742 6.61551ZM51.8265 22.9791H52.6089L52.091 22.3926L44.9769 14.3357C46.8128 14.0959 48.3686 13.4499 49.5052 12.428C50.789 11.2738 51.5106 9.66377 51.5106 7.70085C51.5106 5.60661 50.6745 3.91428 49.2028 2.75386C47.7404 1.60084 45.6798 0.994791 43.2543 0.994791H29.3018H28.9488V1.34773V22.6262V22.9791H29.3018H30.9128H31.2657V22.6262V14.4373H42.1514L49.4934 22.8581L49.5988 22.9791H49.7594H51.8265ZM77.3267 20.7837H59.2286V12.8871H74.4389H74.7918V12.5342V11.0446V10.6917H74.4389H59.2286V3.15977H77.0231H77.3761V2.80683V1.34773V0.994791H77.0231H57.295H56.9421V1.34773V22.6262V22.9791H57.295H77.3267H77.6796V22.6262V21.1367V20.7837H77.3267ZM103.064 20.7837H84.9657V12.8871H100.176H100.529V12.5342V11.0446V10.6917H100.176H84.9657V3.15977H102.76H103.113V2.80683V1.34773V0.994791H102.76H83.0316H82.6787V1.34773V22.6262V22.9791H83.0316H103.064H103.417V22.6262V21.1367V20.7837H103.064ZM108.769 0.994791H108.416V1.34773V22.6262V22.9791H108.769H118.679C122.585 22.9791 125.826 21.9293 128.098 20.016C130.376 18.0972 131.647 15.3356 131.647 11.987C131.647 8.63833 130.376 5.87672 128.098 3.95798C125.826 2.04466 122.585 0.994791 118.679 0.994791H108.769ZM31.2353 12.2724V3.15977H43.1631C45.0782 3.15977 46.5898 3.58371 47.6138 4.3508C48.6241 5.10771 49.1937 6.22311 49.1937 7.70085C49.1937 9.19499 48.6232 10.3178 47.6131 11.078C46.5894 11.8484 45.0782 12.2724 43.1631 12.2724H31.2353ZM118.588 20.7837H110.703V3.15977H118.588C121.756 3.15977 124.445 3.95223 126.334 5.43992C128.212 6.91952 129.33 9.10986 129.33 11.987C129.33 14.8639 128.212 17.0463 126.334 18.5183C124.446 19.9986 121.757 20.7837 118.588 20.7837Z" fill="#F9F9F9" stroke="#F9F9F9" stroke-width="0.705882"/>
</g>
<path d="M2.628 38L0.324 29.6H1.404L3.216 36.8L5.28 29.6H6.396L8.4 36.824L10.236 29.6H11.316L8.964 38H7.812L5.808 31.052L3.756 38H2.628ZM14.4956 38.144C13.9356 38.144 13.4356 38.012 12.9956 37.748C12.5636 37.476 12.2236 37.1 11.9756 36.62C11.7276 36.132 11.6036 35.568 11.6036 34.928C11.6036 34.28 11.7276 33.716 11.9756 33.236C12.2236 32.748 12.5636 32.372 12.9956 32.108C13.4356 31.836 13.9436 31.7 14.5196 31.7C15.1196 31.7 15.6236 31.836 16.0316 32.108C16.4476 32.372 16.7636 32.724 16.9796 33.164C17.1956 33.604 17.3036 34.084 17.3036 34.604C17.3036 34.684 17.3036 34.768 17.3036 34.856C17.3036 34.944 17.2996 35.044 17.2916 35.156H12.3596V34.376H16.3076C16.2916 33.792 16.1116 33.344 15.7676 33.032C15.4316 32.712 15.0076 32.552 14.4956 32.552C14.1596 32.552 13.8476 32.632 13.5596 32.792C13.2716 32.952 13.0356 33.188 12.8516 33.5C12.6756 33.804 12.5876 34.188 12.5876 34.652V34.988C12.5876 35.492 12.6756 35.916 12.8516 36.26C13.0356 36.604 13.2716 36.864 13.5596 37.04C13.8476 37.208 14.1596 37.292 14.4956 37.292C14.9356 37.292 15.2876 37.204 15.5516 37.028C15.8156 36.844 16.0116 36.588 16.1396 36.26H17.1356C17.0316 36.62 16.8596 36.944 16.6196 37.232C16.3876 37.512 16.0916 37.736 15.7316 37.904C15.3796 38.064 14.9676 38.144 14.4956 38.144ZM21.8202 38.144C21.4682 38.144 21.1522 38.092 20.8722 37.988C20.6002 37.884 20.3602 37.748 20.1522 37.58C19.9522 37.404 19.7922 37.216 19.6722 37.016L19.5762 38H18.6642V29.36H19.6722V32.84C19.8642 32.504 20.1442 32.232 20.5122 32.024C20.8802 31.808 21.3162 31.7 21.8202 31.7C22.4042 31.7 22.9122 31.84 23.3442 32.12C23.7842 32.4 24.1242 32.78 24.3642 33.26C24.6042 33.74 24.7242 34.292 24.7242 34.916C24.7242 35.532 24.6042 36.084 24.3642 36.572C24.1242 37.06 23.7842 37.444 23.3442 37.724C22.9122 38.004 22.4042 38.144 21.8202 38.144ZM21.7002 37.268C22.0922 37.268 22.4362 37.172 22.7322 36.98C23.0282 36.788 23.2602 36.516 23.4282 36.164C23.6042 35.812 23.6922 35.4 23.6922 34.928C23.6922 34.448 23.6042 34.036 23.4282 33.692C23.2602 33.34 23.0282 33.068 22.7322 32.876C22.4362 32.676 22.0922 32.576 21.7002 32.576C21.3002 32.576 20.9482 32.676 20.6442 32.876C20.3482 33.068 20.1162 33.34 19.9482 33.692C19.7882 34.036 19.7082 34.448 19.7082 34.928C19.7082 35.4 19.7882 35.812 19.9482 36.164C20.1162 36.516 20.3482 36.788 20.6442 36.98C20.9482 37.172 21.3002 37.268 21.7002 37.268ZM28.8642 38.144C28.3282 38.144 27.8402 38.048 27.4002 37.856C26.9682 37.656 26.6242 37.36 26.3682 36.968C26.1122 36.576 25.9762 36.088 25.9602 35.504H26.9802C26.9882 35.824 27.0642 36.12 27.2082 36.392C27.3602 36.656 27.5762 36.868 27.8562 37.028C28.1362 37.188 28.4722 37.268 28.8642 37.268C29.2562 37.268 29.5842 37.192 29.8482 37.04C30.1122 36.888 30.3122 36.688 30.4482 36.44C30.5842 36.184 30.6522 35.9 30.6522 35.588C30.6522 35.204 30.5562 34.892 30.3642 34.652C30.1802 34.412 29.9282 34.232 29.6082 34.112C29.2962 33.992 28.9522 33.932 28.5762 33.932H27.9522V33.08H28.5762C29.1282 33.08 29.5642 32.952 29.8842 32.696C30.2042 32.44 30.3642 32.088 30.3642 31.64C30.3642 31.264 30.2362 30.952 29.9802 30.704C29.7322 30.456 29.3602 30.332 28.8642 30.332C28.3762 30.332 27.9882 30.468 27.7002 30.74C27.4202 31.012 27.2602 31.36 27.2202 31.784H26.2002C26.2242 31.328 26.3482 30.924 26.5722 30.572C26.7962 30.22 27.1042 29.948 27.4962 29.756C27.8882 29.556 28.3442 29.456 28.8642 29.456C29.4162 29.456 29.8762 29.552 30.2442 29.744C30.6202 29.936 30.9042 30.192 31.0962 30.512C31.2882 30.832 31.3842 31.184 31.3842 31.568C31.3842 31.856 31.3282 32.132 31.2162 32.396C31.1122 32.652 30.9562 32.876 30.7482 33.068C30.5402 33.252 30.2722 33.384 29.9442 33.464C30.2722 33.528 30.5642 33.656 30.8202 33.848C31.0842 34.032 31.2922 34.272 31.4442 34.568C31.5962 34.856 31.6722 35.196 31.6722 35.588C31.6722 36.044 31.5642 36.468 31.3482 36.86C31.1402 37.244 30.8282 37.556 30.4122 37.796C29.9962 38.028 29.4802 38.144 28.8642 38.144ZM36.5604 38V29.6H39.2724C39.9284 29.6 40.4644 29.712 40.8804 29.936C41.2964 30.152 41.6044 30.444 41.8044 30.812C42.0044 31.18 42.1044 31.596 42.1044 32.06C42.1044 32.508 42.0004 32.92 41.7924 33.296C41.5924 33.672 41.2804 33.972 40.8564 34.196C40.4324 34.42 39.8884 34.532 39.2244 34.532H37.5684V38H36.5604ZM41.0004 38L39.1524 34.244H40.2804L42.1884 38H41.0004ZM37.5684 33.74H39.2004C39.8404 33.74 40.3084 33.584 40.6044 33.272C40.9084 32.96 41.0604 32.56 41.0604 32.072C41.0604 31.576 40.9124 31.184 40.6164 30.896C40.3284 30.6 39.8524 30.452 39.1884 30.452H37.5684V33.74ZM43.7449 38V31.844H44.7529V38H43.7449ZM44.2489 30.596C44.0489 30.596 43.8809 30.532 43.7449 30.404C43.6169 30.268 43.5529 30.1 43.5529 29.9C43.5529 29.7 43.6169 29.54 43.7449 29.42C43.8809 29.292 44.0489 29.228 44.2489 29.228C44.4409 29.228 44.6049 29.292 44.7409 29.42C44.8769 29.54 44.9449 29.7 44.9449 29.9C44.9449 30.1 44.8769 30.268 44.7409 30.404C44.6049 30.532 44.4409 30.596 44.2489 30.596ZM48.7997 38.144C48.2717 38.144 47.8197 38.06 47.4437 37.892C47.0757 37.724 46.7877 37.488 46.5797 37.184C46.3717 36.88 46.2437 36.524 46.1957 36.116H47.2277C47.2677 36.324 47.3477 36.52 47.4677 36.704C47.5957 36.88 47.7677 37.024 47.9837 37.136C48.2077 37.24 48.4837 37.292 48.8117 37.292C49.0917 37.292 49.3237 37.252 49.5077 37.172C49.6997 37.084 49.8397 36.968 49.9277 36.824C50.0237 36.672 50.0717 36.508 50.0717 36.332C50.0717 36.076 50.0117 35.88 49.8917 35.744C49.7797 35.608 49.6117 35.504 49.3877 35.432C49.1717 35.352 48.9037 35.288 48.5837 35.24C48.2797 35.192 47.9957 35.128 47.7317 35.048C47.4757 34.96 47.2477 34.848 47.0477 34.712C46.8557 34.576 46.7037 34.408 46.5917 34.208C46.4877 34 46.4357 33.752 46.4357 33.464C46.4357 33.12 46.5237 32.816 46.6997 32.552C46.8837 32.288 47.1397 32.08 47.4677 31.928C47.8037 31.776 48.1997 31.7 48.6557 31.7C49.3117 31.7 49.8397 31.856 50.2397 32.168C50.6397 32.48 50.8757 32.928 50.9477 33.512H49.9517C49.9117 33.216 49.7757 32.984 49.5437 32.816C49.3197 32.64 49.0197 32.552 48.6437 32.552C48.2517 32.552 47.9557 32.628 47.7557 32.78C47.5557 32.932 47.4557 33.132 47.4557 33.38C47.4557 33.556 47.5037 33.712 47.5997 33.848C47.7037 33.976 47.8637 34.088 48.0797 34.184C48.3037 34.272 48.5837 34.344 48.9197 34.4C49.3437 34.464 49.7197 34.556 50.0477 34.676C50.3757 34.796 50.6357 34.98 50.8277 35.228C51.0197 35.468 51.1117 35.808 51.1037 36.248C51.1117 36.632 51.0197 36.968 50.8277 37.256C50.6357 37.544 50.3677 37.764 50.0237 37.916C49.6797 38.068 49.2717 38.144 48.7997 38.144ZM56.2983 38L53.4183 34.652L56.0823 31.844H57.3183L54.2703 35.012L54.2823 34.292L57.5823 38H56.2983ZM52.5783 38V29.36H53.5863V38H52.5783ZM61.3681 38L64.4641 29.6H65.5321L68.6161 38H67.5361L64.9921 30.86L62.4241 38H61.3681ZM62.7841 35.84L63.0721 35.024H66.8761L67.1641 35.84H62.7841ZM72.0966 38.144C71.5686 38.144 71.1166 38.06 70.7406 37.892C70.3726 37.724 70.0846 37.488 69.8766 37.184C69.6686 36.88 69.5406 36.524 69.4926 36.116H70.5246C70.5646 36.324 70.6446 36.52 70.7646 36.704C70.8926 36.88 71.0646 37.024 71.2806 37.136C71.5046 37.24 71.7806 37.292 72.1086 37.292C72.3886 37.292 72.6206 37.252 72.8046 37.172C72.9966 37.084 73.1366 36.968 73.2246 36.824C73.3206 36.672 73.3686 36.508 73.3686 36.332C73.3686 36.076 73.3086 35.88 73.1886 35.744C73.0766 35.608 72.9086 35.504 72.6846 35.432C72.4686 35.352 72.2006 35.288 71.8806 35.24C71.5766 35.192 71.2926 35.128 71.0286 35.048C70.7726 34.96 70.5446 34.848 70.3446 34.712C70.1526 34.576 70.0006 34.408 69.8886 34.208C69.7846 34 69.7326 33.752 69.7326 33.464C69.7326 33.12 69.8206 32.816 69.9966 32.552C70.1806 32.288 70.4366 32.08 70.7646 31.928C71.1006 31.776 71.4966 31.7 71.9526 31.7C72.6086 31.7 73.1366 31.856 73.5366 32.168C73.9366 32.48 74.1726 32.928 74.2446 33.512H73.2486C73.2086 33.216 73.0726 32.984 72.8406 32.816C72.6166 32.64 72.3166 32.552 71.9406 32.552C71.5486 32.552 71.2526 32.628 71.0526 32.78C70.8526 32.932 70.7526 33.132 70.7526 33.38C70.7526 33.556 70.8006 33.712 70.8966 33.848C71.0006 33.976 71.1606 34.088 71.3766 34.184C71.6006 34.272 71.8806 34.344 72.2166 34.4C72.6406 34.464 73.0166 34.556 73.3446 34.676C73.6726 34.796 73.9326 34.98 74.1246 35.228C74.3166 35.468 74.4086 35.808 74.4006 36.248C74.4086 36.632 74.3166 36.968 74.1246 37.256C73.9326 37.544 73.6646 37.764 73.3206 37.916C72.9766 38.068 72.5686 38.144 72.0966 38.144ZM78.1552 38.144C77.6272 38.144 77.1752 38.06 76.7992 37.892C76.4312 37.724 76.1432 37.488 75.9352 37.184C75.7272 36.88 75.5992 36.524 75.5512 36.116H76.5832C76.6232 36.324 76.7032 36.52 76.8232 36.704C76.9512 36.88 77.1232 37.024 77.3392 37.136C77.5632 37.24 77.8392 37.292 78.1672 37.292C78.4472 37.292 78.6792 37.252 78.8632 37.172C79.0552 37.084 79.1952 36.968 79.2832 36.824C79.3792 36.672 79.4272 36.508 79.4272 36.332C79.4272 36.076 79.3672 35.88 79.2472 35.744C79.1352 35.608 78.9672 35.504 78.7432 35.432C78.5272 35.352 78.2592 35.288 77.9392 35.24C77.6352 35.192 77.3512 35.128 77.0872 35.048C76.8312 34.96 76.6032 34.848 76.4032 34.712C76.2112 34.576 76.0592 34.408 75.9472 34.208C75.8432 34 75.7912 33.752 75.7912 33.464C75.7912 33.12 75.8792 32.816 76.0552 32.552C76.2392 32.288 76.4952 32.08 76.8232 31.928C77.1592 31.776 77.5552 31.7 78.0112 31.7C78.6672 31.7 79.1952 31.856 79.5952 32.168C79.9952 32.48 80.2312 32.928 80.3032 33.512H79.3072C79.2672 33.216 79.1312 32.984 78.8992 32.816C78.6752 32.64 78.3752 32.552 77.9992 32.552C77.6072 32.552 77.3112 32.628 77.1112 32.78C76.9112 32.932 76.8112 33.132 76.8112 33.38C76.8112 33.556 76.8592 33.712 76.9552 33.848C77.0592 33.976 77.2192 34.088 77.4352 34.184C77.6592 34.272 77.9392 34.344 78.2752 34.4C78.6992 34.464 79.0752 34.556 79.4032 34.676C79.7312 34.796 79.9912 34.98 80.1832 35.228C80.3752 35.468 80.4672 35.808 80.4592 36.248C80.4672 36.632 80.3752 36.968 80.1832 37.256C79.9912 37.544 79.7232 37.764 79.3792 37.916C79.0352 38.068 78.6272 38.144 78.1552 38.144ZM84.5738 38.144C84.0138 38.144 83.5138 38.012 83.0738 37.748C82.6418 37.476 82.3018 37.1 82.0538 36.62C81.8058 36.132 81.6818 35.568 81.6818 34.928C81.6818 34.28 81.8058 33.716 82.0538 33.236C82.3018 32.748 82.6418 32.372 83.0738 32.108C83.5138 31.836 84.0218 31.7 84.5978 31.7C85.1978 31.7 85.7018 31.836 86.1098 32.108C86.5258 32.372 86.8418 32.724 87.0578 33.164C87.2738 33.604 87.3818 34.084 87.3818 34.604C87.3818 34.684 87.3818 34.768 87.3818 34.856C87.3818 34.944 87.3778 35.044 87.3698 35.156H82.4378V34.376H86.3858C86.3698 33.792 86.1898 33.344 85.8458 33.032C85.5098 32.712 85.0858 32.552 84.5738 32.552C84.2378 32.552 83.9258 32.632 83.6378 32.792C83.3498 32.952 83.1138 33.188 82.9298 33.5C82.7538 33.804 82.6658 34.188 82.6658 34.652V34.988C82.6658 35.492 82.7538 35.916 82.9298 36.26C83.1138 36.604 83.3498 36.864 83.6378 37.04C83.9258 37.208 84.2378 37.292 84.5738 37.292C85.0138 37.292 85.3658 37.204 85.6298 37.028C85.8938 36.844 86.0898 36.588 86.2178 36.26H87.2138C87.1098 36.62 86.9378 36.944 86.6978 37.232C86.4658 37.512 86.1698 37.736 85.8098 37.904C85.4578 38.064 85.0458 38.144 84.5738 38.144ZM91.0223 38.144C90.4943 38.144 90.0423 38.06 89.6663 37.892C89.2983 37.724 89.0103 37.488 88.8023 37.184C88.5943 36.88 88.4663 36.524 88.4183 36.116H89.4503C89.4903 36.324 89.5703 36.52 89.6903 36.704C89.8183 36.88 89.9903 37.024 90.2063 37.136C90.4303 37.24 90.7063 37.292 91.0343 37.292C91.3143 37.292 91.5463 37.252 91.7303 37.172C91.9223 37.084 92.0623 36.968 92.1503 36.824C92.2463 36.672 92.2943 36.508 92.2943 36.332C92.2943 36.076 92.2343 35.88 92.1143 35.744C92.0023 35.608 91.8343 35.504 91.6103 35.432C91.3943 35.352 91.1263 35.288 90.8063 35.24C90.5023 35.192 90.2183 35.128 89.9543 35.048C89.6983 34.96 89.4703 34.848 89.2703 34.712C89.0783 34.576 88.9263 34.408 88.8143 34.208C88.7103 34 88.6583 33.752 88.6583 33.464C88.6583 33.12 88.7463 32.816 88.9223 32.552C89.1063 32.288 89.3623 32.08 89.6903 31.928C90.0263 31.776 90.4223 31.7 90.8783 31.7C91.5343 31.7 92.0623 31.856 92.4623 32.168C92.8623 32.48 93.0983 32.928 93.1703 33.512H92.1743C92.1343 33.216 91.9983 32.984 91.7663 32.816C91.5423 32.64 91.2423 32.552 90.8663 32.552C90.4743 32.552 90.1783 32.628 89.9783 32.78C89.7783 32.932 89.6783 33.132 89.6783 33.38C89.6783 33.556 89.7263 33.712 89.8223 33.848C89.9263 33.976 90.0863 34.088 90.3023 34.184C90.5263 34.272 90.8063 34.344 91.1423 34.4C91.5663 34.464 91.9423 34.556 92.2703 34.676C92.5983 34.796 92.8583 34.98 93.0503 35.228C93.2423 35.468 93.3343 35.808 93.3263 36.248C93.3343 36.632 93.2423 36.968 93.0503 37.256C92.8583 37.544 92.5903 37.764 92.2463 37.916C91.9023 38.068 91.4943 38.144 91.0223 38.144ZM97.0809 38.144C96.5529 38.144 96.1009 38.06 95.7249 37.892C95.3569 37.724 95.0689 37.488 94.8609 37.184C94.6529 36.88 94.5249 36.524 94.4769 36.116H95.5089C95.5489 36.324 95.6289 36.52 95.7489 36.704C95.8769 36.88 96.0489 37.024 96.2649 37.136C96.4889 37.24 96.7649 37.292 97.0929 37.292C97.3729 37.292 97.6049 37.252 97.7889 37.172C97.9809 37.084 98.1209 36.968 98.2089 36.824C98.3049 36.672 98.3529 36.508 98.3529 36.332C98.3529 36.076 98.2929 35.88 98.1729 35.744C98.0609 35.608 97.8929 35.504 97.6689 35.432C97.4529 35.352 97.1849 35.288 96.8649 35.24C96.5609 35.192 96.2769 35.128 96.0129 35.048C95.7569 34.96 95.5289 34.848 95.3289 34.712C95.1369 34.576 94.9849 34.408 94.8729 34.208C94.7689 34 94.7169 33.752 94.7169 33.464C94.7169 33.12 94.8049 32.816 94.9809 32.552C95.1649 32.288 95.4209 32.08 95.7489 31.928C96.0849 31.776 96.4809 31.7 96.9369 31.7C97.5929 31.7 98.1209 31.856 98.5209 32.168C98.9209 32.48 99.1569 32.928 99.2289 33.512H98.2329C98.1929 33.216 98.0569 32.984 97.8249 32.816C97.6009 32.64 97.3009 32.552 96.9249 32.552C96.5329 32.552 96.2369 32.628 96.0369 32.78C95.8369 32.932 95.7369 33.132 95.7369 33.38C95.7369 33.556 95.7849 33.712 95.8809 33.848C95.9849 33.976 96.1449 34.088 96.3609 34.184C96.5849 34.272 96.8649 34.344 97.2009 34.4C97.6249 34.464 98.0009 34.556 98.3289 34.676C98.6569 34.796 98.9169 34.98 99.1089 35.228C99.3009 35.468 99.3929 35.808 99.3849 36.248C99.3929 36.632 99.3009 36.968 99.1089 37.256C98.9169 37.544 98.6489 37.764 98.3049 37.916C97.9609 38.068 97.5529 38.144 97.0809 38.144ZM100.86 38V31.844H101.772L101.832 32.708C102.024 32.396 102.28 32.152 102.6 31.976C102.928 31.792 103.28 31.7 103.656 31.7C103.968 31.7 104.248 31.744 104.496 31.832C104.744 31.912 104.96 32.04 105.144 32.216C105.336 32.384 105.492 32.6 105.612 32.864C105.82 32.488 106.104 32.2 106.464 32C106.824 31.8 107.208 31.7 107.616 31.7C108.08 31.7 108.48 31.792 108.816 31.976C109.16 32.16 109.424 32.44 109.608 32.816C109.8 33.192 109.896 33.664 109.896 34.232V38H108.9V34.34C108.9 33.748 108.776 33.304 108.528 33.008C108.28 32.712 107.932 32.564 107.484 32.564C107.188 32.564 106.916 32.644 106.668 32.804C106.428 32.964 106.236 33.2 106.092 33.512C105.948 33.816 105.876 34.188 105.876 34.628V38H104.868V34.34C104.868 33.748 104.744 33.304 104.496 33.008C104.248 32.712 103.908 32.564 103.476 32.564C103.18 32.564 102.908 32.644 102.66 32.804C102.42 32.964 102.228 33.2 102.084 33.512C101.94 33.816 101.868 34.188 101.868 34.628V38H100.86ZM114.128 38.144C113.568 38.144 113.068 38.012 112.628 37.748C112.196 37.476 111.856 37.1 111.608 36.62C111.36 36.132 111.236 35.568 111.236 34.928C111.236 34.28 111.36 33.716 111.608 33.236C111.856 32.748 112.196 32.372 112.628 32.108C113.068 31.836 113.576 31.7 114.152 31.7C114.752 31.7 115.256 31.836 115.664 32.108C116.08 32.372 116.396 32.724 116.612 33.164C116.828 33.604 116.936 34.084 116.936 34.604C116.936 34.684 116.936 34.768 116.936 34.856C116.936 34.944 116.932 35.044 116.924 35.156H111.992V34.376H115.94C115.924 33.792 115.744 33.344 115.4 33.032C115.064 32.712 114.64 32.552 114.128 32.552C113.792 32.552 113.48 32.632 113.192 32.792C112.904 32.952 112.668 33.188 112.484 33.5C112.308 33.804 112.22 34.188 112.22 34.652V34.988C112.22 35.492 112.308 35.916 112.484 36.26C112.668 36.604 112.904 36.864 113.192 37.04C113.48 37.208 113.792 37.292 114.128 37.292C114.568 37.292 114.92 37.204 115.184 37.028C115.448 36.844 115.644 36.588 115.772 36.26H116.768C116.664 36.62 116.492 36.944 116.252 37.232C116.02 37.512 115.724 37.736 115.364 37.904C115.012 38.064 114.6 38.144 114.128 38.144ZM118.297 38V31.844H119.209L119.269 32.876C119.453 32.508 119.721 32.22 120.073 32.012C120.425 31.804 120.829 31.7 121.285 31.7C121.757 31.7 122.165 31.792 122.509 31.976C122.853 32.16 123.121 32.44 123.313 32.816C123.505 33.184 123.601 33.652 123.601 34.22V38H122.593V34.328C122.593 33.744 122.457 33.304 122.185 33.008C121.913 32.712 121.537 32.564 121.057 32.564C120.737 32.564 120.441 32.644 120.169 32.804C119.905 32.964 119.693 33.196 119.533 33.5C119.381 33.796 119.305 34.164 119.305 34.604V38H118.297ZM127.611 38C127.251 38 126.939 37.944 126.675 37.832C126.411 37.72 126.207 37.532 126.063 37.268C125.927 36.996 125.859 36.632 125.859 36.176V32.696H124.779V31.844H125.859L125.991 30.344H126.867V31.844H128.631V32.696H126.867V36.176C126.867 36.552 126.943 36.808 127.095 36.944C127.247 37.072 127.515 37.136 127.899 37.136H128.571V38H127.611ZM133.24 38V29.6H138.352V30.428H134.248V33.38H137.74V34.196H134.248V38H133.24ZM139.613 38V31.844H140.525L140.609 32.996C140.745 32.716 140.921 32.48 141.137 32.288C141.361 32.096 141.629 31.952 141.941 31.856C142.253 31.752 142.605 31.7 142.997 31.7V32.756H142.529C142.281 32.756 142.041 32.792 141.809 32.864C141.585 32.928 141.381 33.036 141.197 33.188C141.021 33.332 140.881 33.532 140.777 33.788C140.673 34.044 140.621 34.364 140.621 34.748V38H139.613ZM146.129 38.144C145.641 38.144 145.233 38.056 144.905 37.88C144.585 37.704 144.345 37.472 144.185 37.184C144.025 36.896 143.945 36.58 143.945 36.236C143.945 35.828 144.049 35.48 144.257 35.192C144.473 34.904 144.773 34.688 145.157 34.544C145.541 34.392 145.993 34.316 146.513 34.316H148.097C148.097 33.924 148.045 33.6 147.941 33.344C147.837 33.08 147.673 32.884 147.449 32.756C147.233 32.62 146.957 32.552 146.621 32.552C146.245 32.552 145.921 32.648 145.649 32.84C145.377 33.024 145.209 33.3 145.145 33.668H144.113C144.161 33.244 144.305 32.888 144.545 32.6C144.785 32.304 145.089 32.08 145.457 31.928C145.825 31.776 146.213 31.7 146.621 31.7C147.181 31.7 147.645 31.804 148.013 32.012C148.381 32.212 148.653 32.496 148.829 32.864C149.013 33.224 149.105 33.652 149.105 34.148V38H148.205L148.145 36.92C148.065 37.088 147.961 37.248 147.833 37.4C147.713 37.544 147.569 37.672 147.401 37.784C147.241 37.896 147.053 37.984 146.837 38.048C146.621 38.112 146.385 38.144 146.129 38.144ZM146.273 37.292C146.545 37.292 146.793 37.232 147.017 37.112C147.249 36.992 147.445 36.832 147.605 36.632C147.765 36.432 147.885 36.208 147.965 35.96C148.053 35.704 148.097 35.44 148.097 35.168V35.096H146.597C146.213 35.096 145.901 35.144 145.661 35.24C145.429 35.328 145.261 35.456 145.157 35.624C145.053 35.792 145.001 35.98 145.001 36.188C145.001 36.412 145.049 36.608 145.145 36.776C145.241 36.936 145.385 37.064 145.577 37.16C145.769 37.248 146.001 37.292 146.273 37.292ZM150.711 38V31.844H151.623L151.683 32.708C151.875 32.396 152.131 32.152 152.451 31.976C152.779 31.792 153.131 31.7 153.507 31.7C153.819 31.7 154.099 31.744 154.347 31.832C154.595 31.912 154.811 32.04 154.995 32.216C155.187 32.384 155.343 32.6 155.463 32.864C155.671 32.488 155.955 32.2 156.315 32C156.675 31.8 157.059 31.7 157.467 31.7C157.931 31.7 158.331 31.792 158.667 31.976C159.011 32.16 159.275 32.44 159.459 32.816C159.651 33.192 159.747 33.664 159.747 34.232V38H158.751V34.34C158.751 33.748 158.627 33.304 158.379 33.008C158.131 32.712 157.783 32.564 157.335 32.564C157.039 32.564 156.767 32.644 156.519 32.804C156.279 32.964 156.087 33.2 155.943 33.512C155.799 33.816 155.727 34.188 155.727 34.628V38H154.719V34.34C154.719 33.748 154.595 33.304 154.347 33.008C154.099 32.712 153.759 32.564 153.327 32.564C153.031 32.564 152.759 32.644 152.511 32.804C152.271 32.964 152.079 33.2 151.935 33.512C151.791 33.816 151.719 34.188 151.719 34.628V38H150.711ZM163.98 38.144C163.42 38.144 162.92 38.012 162.48 37.748C162.048 37.476 161.708 37.1 161.46 36.62C161.212 36.132 161.088 35.568 161.088 34.928C161.088 34.28 161.212 33.716 161.46 33.236C161.708 32.748 162.048 32.372 162.48 32.108C162.92 31.836 163.428 31.7 164.004 31.7C164.604 31.7 165.108 31.836 165.516 32.108C165.932 32.372 166.248 32.724 166.464 33.164C166.68 33.604 166.788 34.084 166.788 34.604C166.788 34.684 166.788 34.768 166.788 34.856C166.788 34.944 166.784 35.044 166.776 35.156H161.844V34.376H165.792C165.776 33.792 165.596 33.344 165.252 33.032C164.916 32.712 164.492 32.552 163.98 32.552C163.644 32.552 163.332 32.632 163.044 32.792C162.756 32.952 162.52 33.188 162.336 33.5C162.16 33.804 162.072 34.188 162.072 34.652V34.988C162.072 35.492 162.16 35.916 162.336 36.26C162.52 36.604 162.756 36.864 163.044 37.04C163.332 37.208 163.644 37.292 163.98 37.292C164.42 37.292 164.772 37.204 165.036 37.028C165.3 36.844 165.496 36.588 165.624 36.26H166.62C166.516 36.62 166.344 36.944 166.104 37.232C165.872 37.512 165.576 37.736 165.216 37.904C164.864 38.064 164.452 38.144 163.98 38.144ZM169.174 38L167.374 31.844H168.382L169.762 36.92H169.642L171.13 31.844H172.27L173.782 36.908L173.662 36.92L175.03 31.844H176.05L174.25 38H173.218L171.646 32.696H171.766L170.206 38H169.174ZM179.685 38.144C179.109 38.144 178.597 38.012 178.149 37.748C177.701 37.484 177.349 37.112 177.093 36.632C176.845 36.144 176.721 35.576 176.721 34.928C176.721 34.272 176.849 33.704 177.105 33.224C177.361 32.744 177.713 32.372 178.161 32.108C178.617 31.836 179.133 31.7 179.709 31.7C180.285 31.7 180.797 31.836 181.245 32.108C181.693 32.372 182.041 32.744 182.289 33.224C182.545 33.704 182.673 34.272 182.673 34.928C182.673 35.576 182.545 36.144 182.289 36.632C182.033 37.112 181.677 37.484 181.221 37.748C180.773 38.012 180.261 38.144 179.685 38.144ZM179.685 37.28C180.045 37.28 180.373 37.192 180.669 37.016C180.965 36.84 181.201 36.576 181.377 36.224C181.553 35.872 181.641 35.44 181.641 34.928C181.641 34.4 181.553 33.964 181.377 33.62C181.209 33.268 180.977 33.004 180.681 32.828C180.385 32.652 180.061 32.564 179.709 32.564C179.357 32.564 179.033 32.652 178.737 32.828C178.441 33.004 178.201 33.268 178.017 33.62C177.841 33.964 177.753 34.4 177.753 34.928C177.753 35.44 177.841 35.872 178.017 36.224C178.193 36.576 178.425 36.84 178.713 37.016C179.009 37.192 179.333 37.28 179.685 37.28ZM184.11 38V31.844H185.022L185.106 32.996C185.242 32.716 185.418 32.48 185.634 32.288C185.858 32.096 186.126 31.952 186.438 31.856C186.75 31.752 187.102 31.7 187.494 31.7V32.756H187.026C186.778 32.756 186.538 32.792 186.306 32.864C186.082 32.928 185.878 33.036 185.694 33.188C185.518 33.332 185.378 33.532 185.274 33.788C185.17 34.044 185.118 34.364 185.118 34.748V38H184.11ZM192.365 38L189.485 34.652L192.149 31.844H193.385L190.337 35.012L190.349 34.292L193.649 38H192.365ZM188.645 38V29.36H189.653V38H188.645Z" fill="#888888"/>
<defs>
<clipPath id="clip0_12719_112223">
<rect width="132" height="24" fill="white"/>
</clipPath>
</defs>
</svg>
