<svg width="1870" height="340" viewBox="0 0 1870 340" fill="none" xmlns="http://www.w3.org/2000/svg">
<path d="M314.134 93.7213L316.583 97.5178L320.607 95.4645L341.708 84.6985L346.666 82.1689L343.621 77.5096C314.096 32.3269 261.96 5.05127 189.575 5.05127C132.258 5.05127 86.0557 21.0292 54.1248 49.8899C22.1385 78.8006 5 120.168 5 169.817C5 219.465 22.1377 260.829 54.0107 289.738C85.8309 318.599 131.818 334.582 188.714 334.582C261.946 334.582 314.09 307.316 343.621 262.124L346.666 257.464L341.708 254.935L320.607 244.169L316.552 242.1L314.113 245.944C289.901 284.109 247.023 303.481 189.144 303.481C142.804 303.481 105.01 291.42 78.8781 268.947C52.8499 246.564 37.8236 213.369 37.8236 169.817C37.8236 126.264 52.8499 93.0693 78.8781 70.6861C105.01 48.2137 142.804 36.1524 189.144 36.1524C246.995 36.1524 289.48 55.5089 314.134 93.7213ZM734.207 325.539H745.292L737.955 317.23L637.172 203.091C663.18 199.693 685.22 190.542 701.322 176.065C719.51 159.714 729.733 136.905 729.733 109.097C729.733 79.4286 717.888 55.4539 697.038 39.0146C676.321 22.6802 647.13 14.0945 612.768 14.0945H415.107H410.107V19.0945V320.539V325.539H415.107H437.93H442.93V320.539V204.53H597.144L701.155 323.825L702.649 325.539H704.923H734.207ZM1095.46 294.438H839.07V182.569H1054.55H1059.55V177.569V156.467V151.467H1054.55H839.07V44.7651H1091.16H1096.16V39.7651V19.0945V14.0945H1091.16H811.678H806.678V19.0945V320.539V325.539H811.678H1095.46H1100.46V320.539V299.438V294.438H1095.46ZM1460.07 294.438H1203.68V182.569H1419.16H1424.16V177.569V156.467V151.467H1419.16H1203.68V44.7651H1455.77H1460.77V39.7651V19.0945V14.0945H1455.77H1176.28H1171.28V19.0945V320.539V325.539H1176.28H1460.07H1465.07V320.539V299.438V294.438H1460.07ZM1540.89 14.0945H1535.89V19.0945V320.539V325.539H1540.89H1681.28C1736.62 325.539 1782.54 310.666 1814.72 283.561C1846.99 256.379 1865 217.256 1865 169.817C1865 122.378 1846.99 83.2552 1814.72 56.073C1782.54 28.9676 1736.62 14.0945 1681.28 14.0945H1540.89ZM442.499 173.86V44.7651H611.476C638.606 44.7651 660.021 50.7709 674.527 61.638C688.84 72.3608 696.909 88.1623 696.909 109.097C696.909 130.264 688.827 146.171 674.518 156.94C660.016 167.854 638.606 173.86 611.476 173.86H442.499ZM1680 294.438H1568.29V44.7651H1680C1724.88 44.7651 1762.97 55.9915 1789.73 77.0672C1816.34 98.0281 1832.17 129.058 1832.17 169.817C1832.17 210.573 1816.34 241.491 1789.73 262.344C1762.98 283.315 1724.89 294.438 1680 294.438Z" fill="#A54551" stroke="#A54551" stroke-width="10"/>
</svg>
