<svg width="2027" height="2026" viewBox="0 0 2027 2026" fill="none" xmlns="http://www.w3.org/2000/svg">
<rect x="1" y="0.0512695" width="2000" height="2000" fill="#A54551"/>
<path d="M380.134 923.721L382.583 927.518L386.607 925.464L407.708 914.699L412.666 912.169L409.621 907.51C380.096 862.327 327.96 835.051 255.575 835.051C198.258 835.051 152.056 851.029 120.125 879.89C88.1385 908.801 71 950.168 71 999.817C71 1049.47 88.1377 1090.83 120.011 1119.74C151.831 1148.6 197.818 1164.58 254.714 1164.58C327.946 1164.58 380.09 1137.32 409.621 1092.12L412.666 1087.46L407.708 1084.93L386.607 1074.17L382.552 1072.1L380.113 1075.94C355.901 1114.11 313.023 1133.48 255.144 1133.48C208.804 1133.48 171.01 1121.42 144.878 1098.95C118.85 1076.56 103.824 1043.37 103.824 999.817C103.824 956.264 118.85 923.069 144.878 900.686C171.01 878.214 208.804 866.152 255.144 866.152C312.995 866.152 355.48 885.509 380.134 923.721ZM800.207 1155.54H811.292L803.955 1147.23L703.172 1033.09C729.18 1029.69 751.22 1020.54 767.322 1006.06C785.51 989.714 795.733 966.905 795.733 939.097C795.733 909.429 783.888 885.454 763.038 869.015C742.321 852.68 713.13 844.095 678.768 844.095H481.107H476.107V849.095V1150.54V1155.54H481.107H503.93H508.93V1150.54V1034.53H663.144L767.155 1153.82L768.649 1155.54H770.923H800.207ZM1161.46 1124.44H905.07V1012.57H1120.55H1125.55V1007.57V986.467V981.467H1120.55H905.07V874.765H1157.16H1162.16V869.765V849.095V844.095H1157.16H877.678H872.678V849.095V1150.54V1155.54H877.678H1161.46H1166.46V1150.54V1129.44V1124.44H1161.46ZM1526.07 1124.44H1269.68V1012.57H1485.16H1490.16V1007.57V986.467V981.467H1485.16H1269.68V874.765H1521.77H1526.77V869.765V849.095V844.095H1521.77H1242.28H1237.28V849.095V1150.54V1155.54H1242.28H1526.07H1531.07V1150.54V1129.44V1124.44H1526.07ZM1606.89 844.095H1601.89V849.095V1150.54V1155.54H1606.89H1747.28C1802.62 1155.54 1848.54 1140.67 1880.72 1113.56C1912.99 1086.38 1931 1047.26 1931 999.817C1931 952.378 1912.99 913.255 1880.72 886.073C1848.54 858.968 1802.62 844.095 1747.28 844.095H1606.89ZM508.499 1003.86V874.765H677.476C704.606 874.765 726.021 880.771 740.527 891.638C754.84 902.361 762.909 918.162 762.909 939.097C762.909 960.264 754.827 976.171 740.518 986.94C726.016 997.854 704.606 1003.86 677.476 1003.86H508.499ZM1746 1124.44H1634.29V874.765H1746C1790.88 874.765 1828.97 885.991 1855.73 907.067C1882.34 928.028 1898.17 959.058 1898.17 999.817C1898.17 1040.57 1882.34 1071.49 1855.73 1092.34C1828.98 1113.31 1790.89 1124.44 1746 1124.44Z" fill="white" stroke="white" stroke-width="10"/>
</svg>
