<svg width="36" height="36" viewBox="0 0 36 36" fill="none" xmlns="http://www.w3.org/2000/svg">
<rect width="36" height="36" rx="18" fill="#F9F9F9" fill-opacity="0.1"/>
<path d="M21.0779 12.5014C21.2368 12.3424 21.4255 12.2163 21.6332 12.1303C21.8409 12.0443 22.0635 12 22.2883 12C22.513 12 22.7356 12.0443 22.9433 12.1303C23.151 12.2163 23.3397 12.3424 23.4986 12.5014C23.6576 12.6603 23.7837 12.849 23.8697 13.0567C23.9557 13.2644 24 13.487 24 13.7117C24 13.9365 23.9557 14.1591 23.8697 14.3668C23.7837 14.5745 23.6576 14.7632 23.4986 14.9221L15.3286 23.0922L12 24L12.9078 20.6714L21.0779 12.5014Z" stroke="#73F36C" stroke-width="1.01613" stroke-linecap="round" stroke-linejoin="round"/>
</svg>
