<svg width="95" height="24" viewBox="0 0 95 24" fill="none" xmlns="http://www.w3.org/2000/svg">
<path d="M6.45671 22.6132V6.30628H0V1.59139H18.8296V6.30628H12.4029V22.6132H6.45671Z" fill="#73F36C"/>
<path d="M27.2991 22.8835C25.9777 22.8835 24.7865 22.6232 23.7254 22.1027C22.6843 21.5821 21.8634 20.7713 21.2628 19.6701C20.6822 18.549 20.3919 17.1375 20.3919 15.4358V6.33631H26.0978V14.5048C26.0978 15.7661 26.3281 16.667 26.7885 17.2076C27.269 17.7481 27.9397 18.0184 28.8006 18.0184C29.3612 18.0184 29.8717 17.8883 30.3322 17.628C30.7927 17.3678 31.1631 16.9573 31.4434 16.3967C31.7237 15.8161 31.8638 15.0754 31.8638 14.1744V6.33631H37.5698V22.6132H32.1341V18.0184L33.1852 19.3098C32.6246 20.511 31.8138 21.4119 30.7527 22.0126C29.6916 22.5932 28.5404 22.8835 27.2991 22.8835Z" fill="#73F36C"/>
<path d="M41.2451 22.6132V6.33631H46.6807V11.0812L45.8699 9.72983C46.3504 8.50856 47.1312 7.59762 48.2123 6.997C49.2934 6.37635 50.6048 6.06603 52.1464 6.06603V11.2014C51.8861 11.1613 51.6559 11.1413 51.4557 11.1413C51.2755 11.1213 51.0753 11.1113 50.855 11.1113C49.6938 11.1113 48.7529 11.4316 48.0321 12.0723C47.3114 12.6929 46.951 13.714 46.951 15.1354V22.6132H41.2451Z" fill="#73F36C"/>
<path d="M62.2671 22.8835C60.185 22.8835 58.5633 22.3729 57.4021 21.3519C56.2409 20.3108 55.6603 18.7492 55.6603 16.667V2.70254H61.3662V16.607C61.3662 17.1876 61.5264 17.648 61.8467 17.9884C62.167 18.3087 62.5775 18.4689 63.078 18.4689C63.7587 18.4689 64.3393 18.2987 64.8198 17.9584L66.2313 21.9525C65.7508 22.2728 65.1601 22.5031 64.4594 22.6432C63.7587 22.8034 63.0279 22.8835 62.2671 22.8835ZM53.2878 11.2014V6.93693H65.0901V11.2014H53.2878Z" fill="#73F36C"/>
<path d="M68.4315 22.6132V0.330078H74.1374V22.6132H68.4315Z" fill="#73F36C"/>
<path d="M86.3745 22.8835C84.4525 22.8835 82.7707 22.5231 81.3292 21.8024C79.9077 21.0616 78.7966 20.0606 77.9957 18.7992C77.2149 17.5179 76.8245 16.0664 76.8245 14.4447C76.8245 12.823 77.2049 11.3815 77.9657 10.1202C78.7465 8.83891 79.8176 7.84788 81.1791 7.14715C82.5405 6.4264 84.0721 6.06603 85.7738 6.06603C87.3755 6.06603 88.837 6.39637 90.1584 7.05706C91.4798 7.69772 92.5309 8.64871 93.3117 9.91002C94.0925 11.1713 94.4829 12.7029 94.4829 14.5048C94.4829 14.705 94.4729 14.9352 94.4529 15.1955C94.4328 15.4558 94.4128 15.696 94.3928 15.9162H81.5094V12.9131H91.3596L89.1974 13.754C89.2174 13.0132 89.0773 12.3726 88.7769 11.832C88.4967 11.2915 88.0962 10.871 87.5757 10.5707C87.0752 10.2704 86.4846 10.1202 85.8039 10.1202C85.1232 10.1202 84.5225 10.2704 84.002 10.5707C83.5015 10.871 83.1111 11.3015 82.8308 11.862C82.5505 12.4026 82.4103 13.0433 82.4103 13.784V14.6549C82.4103 15.4558 82.5705 16.1465 82.8908 16.7271C83.2312 17.3077 83.7117 17.7582 84.3323 18.0785C84.953 18.3788 85.6937 18.529 86.5546 18.529C87.3555 18.529 88.0362 18.4188 88.5968 18.1986C89.1774 17.9584 89.748 17.598 90.3085 17.1175L93.3117 20.2407C92.5309 21.1016 91.5698 21.7623 90.4287 22.2228C89.2875 22.6632 87.9361 22.8835 86.3745 22.8835Z" fill="#73F36C"/>
</svg>
