<svg width="400" height="400" viewBox="0 0 400 400" fill="none" xmlns="http://www.w3.org/2000/svg">
<path d="M169.049 196.179V159.897H154.683V149.406H196.578V159.897H182.279V196.179H169.049Z" fill="#73F36C"/>
<path d="M215.422 196.78C212.482 196.78 209.831 196.201 207.471 195.043C205.154 193.885 203.328 192.081 201.992 189.631C200.7 187.136 200.054 183.996 200.054 180.209V159.964H212.749V178.138C212.749 180.944 213.261 182.949 214.286 184.151C215.355 185.354 216.847 185.956 218.763 185.956C220.01 185.956 221.146 185.666 222.17 185.087C223.195 184.508 224.019 183.595 224.643 182.347C225.266 181.056 225.578 179.407 225.578 177.403V159.964H238.273V196.179H226.18V185.956L228.518 188.829C227.271 191.501 225.467 193.506 223.106 194.842C220.745 196.134 218.184 196.78 215.422 196.78Z" fill="#73F36C"/>
<path d="M246.451 196.179V159.964H258.545V170.521L256.741 167.514C257.81 164.797 259.547 162.77 261.953 161.434C264.358 160.053 267.276 159.362 270.706 159.362V170.788C270.127 170.699 269.614 170.654 269.169 170.654C268.768 170.61 268.322 170.588 267.832 170.588C265.249 170.588 263.155 171.3 261.552 172.726C259.948 174.107 259.146 176.378 259.146 179.541V196.179H246.451Z" fill="#73F36C"/>
<path d="M293.224 196.78C288.591 196.78 284.983 195.644 282.399 193.372C279.816 191.056 278.524 187.581 278.524 182.949V151.879H291.219V182.815C291.219 184.107 291.575 185.131 292.288 185.889C293.001 186.601 293.914 186.958 295.028 186.958C296.542 186.958 297.834 186.579 298.903 185.822L302.044 194.709C300.975 195.421 299.66 195.934 298.101 196.245C296.542 196.602 294.916 196.78 293.224 196.78ZM273.245 170.788V161.3H299.505V170.788H273.245Z" fill="#73F36C"/>
<path d="M306.939 196.179V146.6H319.634V196.179H306.939Z" fill="#73F36C"/>
<path d="M346.861 196.78C342.585 196.78 338.843 195.978 335.636 194.375C332.473 192.726 330.001 190.499 328.219 187.693C326.482 184.842 325.613 181.612 325.613 178.004C325.613 174.396 326.459 171.189 328.152 168.383C329.889 165.532 332.272 163.327 335.302 161.768C338.331 160.164 341.738 159.362 345.525 159.362C349.088 159.362 352.34 160.097 355.28 161.567C358.22 162.993 360.559 165.108 362.296 167.915C364.033 170.721 364.902 174.129 364.902 178.138C364.902 178.583 364.879 179.096 364.835 179.675C364.79 180.254 364.746 180.788 364.701 181.278H336.037V174.597H357.953L353.142 176.467C353.186 174.819 352.875 173.394 352.206 172.191C351.583 170.988 350.692 170.053 349.534 169.385C348.42 168.717 347.106 168.383 345.591 168.383C344.077 168.383 342.741 168.717 341.582 169.385C340.469 170.053 339.6 171.011 338.977 172.258C338.353 173.461 338.041 174.886 338.041 176.534V178.472C338.041 180.254 338.397 181.791 339.11 183.082C339.867 184.374 340.936 185.376 342.317 186.089C343.698 186.757 345.346 187.091 347.262 187.091C349.044 187.091 350.558 186.846 351.805 186.356C353.097 185.822 354.367 185.02 355.614 183.951L362.296 190.9C360.559 192.816 358.42 194.285 355.881 195.31C353.342 196.29 350.335 196.78 346.861 196.78Z" fill="#73F36C"/>
<path d="M182.412 252.812C178.715 252.812 175.285 252.233 172.123 251.075C169.004 249.872 166.287 248.179 163.971 245.997C161.699 243.814 159.917 241.253 158.625 238.313C157.334 235.328 156.688 232.054 156.688 228.49C156.688 224.927 157.334 221.675 158.625 218.735C159.917 215.751 161.699 213.167 163.971 210.984C166.287 208.802 169.004 207.131 172.123 205.973C175.285 204.77 178.715 204.169 182.412 204.169C186.733 204.169 190.586 204.926 193.972 206.441C197.402 207.955 200.253 210.138 202.525 212.989L194.105 220.606C192.591 218.824 190.921 217.466 189.094 216.53C187.312 215.595 185.308 215.127 183.081 215.127C181.165 215.127 179.406 215.439 177.802 216.062C176.198 216.686 174.817 217.599 173.659 218.802C172.546 219.96 171.655 221.363 170.987 223.011C170.363 224.66 170.051 226.486 170.051 228.49C170.051 230.495 170.363 232.321 170.987 233.97C171.655 235.618 172.546 237.043 173.659 238.246C174.817 239.404 176.198 240.295 177.802 240.919C179.406 241.542 181.165 241.854 183.081 241.854C185.308 241.854 187.312 241.386 189.094 240.451C190.921 239.515 192.591 238.157 194.105 236.375L202.525 243.992C200.253 246.798 197.402 248.981 193.972 250.54C190.586 252.055 186.733 252.812 182.412 252.812Z" fill="#73F36C"/>
<path d="M207.822 251.877V202.298H220.517V251.877H207.822Z" fill="#73F36C"/>
<path d="M244.002 252.478C241.062 252.478 238.412 251.899 236.051 250.741C233.734 249.583 231.908 247.778 230.572 245.329C229.28 242.834 228.634 239.694 228.634 235.907V215.661H241.329V233.836C241.329 236.642 241.842 238.647 242.866 239.849C243.935 241.052 245.428 241.654 247.343 241.654C248.59 241.654 249.726 241.364 250.751 240.785C251.775 240.206 252.599 239.293 253.223 238.045C253.847 236.754 254.158 235.105 254.158 233.101V215.661H266.854V251.877H254.76V241.654L257.098 244.527C255.851 247.199 254.047 249.204 251.686 250.54C249.325 251.832 246.764 252.478 244.002 252.478Z" fill="#73F36C"/>
<path d="M297.816 252.478C294.564 252.478 291.847 251.81 289.664 250.473C287.526 249.137 285.922 247.088 284.853 244.326C283.784 241.564 283.25 238.023 283.25 233.702C283.25 229.47 283.806 225.974 284.92 223.212C286.078 220.45 287.749 218.401 289.931 217.065C292.114 215.728 294.742 215.06 297.816 215.06C301.112 215.06 304.097 215.817 306.769 217.332C309.487 218.846 311.625 221.007 313.184 223.813C314.787 226.575 315.589 229.871 315.589 233.702C315.589 237.578 314.787 240.919 313.184 243.725C311.625 246.487 309.487 248.647 306.769 250.206C304.097 251.721 301.112 252.478 297.816 252.478ZM275.031 251.877V202.298H287.726V221.742L287.058 233.702L287.125 245.663V251.877H275.031ZM295.143 242.389C296.569 242.389 297.838 242.054 298.952 241.386C300.11 240.718 301.023 239.738 301.691 238.446C302.404 237.11 302.76 235.529 302.76 233.702C302.76 231.876 302.404 230.339 301.691 229.092C301.023 227.8 300.11 226.82 298.952 226.152C297.838 225.484 296.569 225.15 295.143 225.15C293.718 225.15 292.426 225.484 291.268 226.152C290.154 226.82 289.241 227.8 288.528 229.092C287.86 230.339 287.526 231.876 287.526 233.702C287.526 235.529 287.86 237.11 288.528 238.446C289.241 239.738 290.154 240.718 291.268 241.386C292.426 242.054 293.718 242.389 295.143 242.389Z" fill="#73F36C"/>
<path d="M58.7852 166.934C64.9559 163.546 72.0424 161.619 79.5789 161.619C87.6773 161.619 95.2561 163.844 101.737 167.716C101.536 156.02 91.9918 146.6 80.2475 146.6C68.7661 146.6 59.3874 155.603 58.7852 166.934Z" fill="#73F36C"/>
<path d="M122.426 210.961C122.704 208.977 122.848 206.949 122.848 204.889C122.848 191.711 116.957 179.909 107.665 171.973C107.981 171.755 108.315 171.564 108.666 171.401C114.697 168.596 123.647 175.055 128.657 185.827C133.666 196.599 132.838 207.605 126.807 210.41C125.466 211.033 123.98 211.199 122.426 210.961Z" fill="#73F36C"/>
<path d="M93.1973 245.971C105.881 241.769 115.963 231.857 120.397 219.281C121.999 224.169 121.237 231.386 117.928 238.502C112.919 249.274 103.969 255.733 97.9381 252.928C95.4772 251.784 93.8825 249.274 93.1973 245.971Z" fill="#73F36C"/>
<path d="M39.0772 220.148C43.728 232.486 53.8546 242.139 66.4941 246.144C65.7875 249.352 64.2074 251.787 61.7944 252.909C55.7634 255.714 46.8135 249.255 41.8041 238.483C38.69 231.786 37.8318 224.999 39.0772 220.148Z" fill="#73F36C"/>
<path d="M51.7283 171.773C42.3002 179.71 36.3096 191.6 36.3096 204.889C36.3096 206.98 36.458 209.037 36.7448 211.049C35.3944 211.171 34.1044 210.977 32.9258 210.429C26.8949 207.624 26.0667 196.618 31.076 185.846C36.0854 175.074 45.0353 168.615 51.0663 171.42C51.2944 171.526 51.5151 171.644 51.7283 171.773Z" fill="#73F36C"/>
<path d="M70.4634 223.117C71.3343 221.919 72.726 221.21 74.2072 221.21L85.6674 221.21C87.1486 221.21 88.5402 221.919 89.411 223.117L96.5589 232.951C98.1128 235.089 97.5763 238.124 95.2237 239.328C86.2459 243.925 76.7372 244.518 65.1074 239.239C62.5832 238.093 61.8939 234.907 63.5237 232.665L70.4634 223.117Z" fill="#73F36C"/>
<path d="M94.5286 219.086C93.6507 217.884 93.4043 216.334 93.8664 214.919L97.4563 203.929C97.9163 202.521 99.0228 201.418 100.433 200.962L112.062 197.204C114.636 196.373 117.398 197.919 117.662 200.61C117.781 201.828 117.842 203.062 117.842 204.311C117.842 211.357 117.842 214.472 112.754 223.218C111.457 225.447 109.936 227.53 108.223 229.439C106.421 231.448 103.286 231.074 101.694 228.895L94.5286 219.086Z" fill="#73F36C"/>
<path d="M110.143 191.557C112.712 190.718 114.038 187.847 112.677 185.512C111.726 183.881 110.658 182.327 109.485 180.862C109.305 180.638 109.148 180.399 108.992 180.158C106.715 176.637 98.3123 170.601 94.4394 169.468C94.1988 169.398 93.9587 169.325 93.7253 169.233C91.8977 168.515 90.0012 167.936 88.0486 167.507C85.4044 166.927 83.0796 169.081 83.0795 171.788L83.0787 184.066C83.0786 185.543 83.7838 186.932 84.9767 187.803L94.3906 194.68C95.5925 195.559 97.1434 195.805 98.5582 195.343L110.143 191.557Z" fill="#73F36C"/>
<path d="M51.6509 229.439C49.9378 227.53 48.4165 225.447 47.1194 223.217C43.5282 217.415 42.0314 210.989 42.0314 204.31C42.0314 203.062 42.0927 201.827 42.2121 200.61C42.4762 197.918 45.238 196.373 47.8114 197.204L59.4412 200.962C60.8511 201.418 61.9576 202.521 62.4176 203.929L66.0073 214.919C66.4693 216.334 66.223 217.884 65.3451 219.086L58.1803 228.895C56.5883 231.074 53.4532 231.448 51.6509 229.439Z" fill="#73F36C"/>
<path d="M61.3167 195.343C62.7315 195.805 64.2824 195.559 65.4843 194.68L74.8977 187.804C76.0906 186.932 76.7959 185.544 76.7957 184.066L76.7947 171.789C76.7945 169.082 74.4705 166.948 71.8353 167.569C69.7735 168.055 67.7683 168.693 65.7996 169.373C59.409 171.58 53.5799 176.968 50.6616 180.527C49.3806 182.089 48.2212 183.756 47.1976 185.512C45.8368 187.847 47.1626 190.717 49.7313 191.557L61.3167 195.343Z" fill="#73F36C"/>
<path d="M75.9372 214.927C73.925 214.927 72.1434 213.627 71.5296 211.71L69.0133 203.853C68.4074 201.961 69.0762 199.894 70.6751 198.716L77.1908 193.914C78.8235 192.711 81.0495 192.711 82.6823 193.914L89.198 198.716C90.7969 199.894 91.4656 201.961 90.8598 203.853L88.3434 211.71C87.7297 213.627 85.9481 214.927 83.9358 214.927H75.9372Z" fill="#73F36C"/>
</svg>
